<?xml version="1.0" standalone="no"?>
<!DOCTYPE svg PUBLIC "-//W3C//DTD SVG 20010904//EN"
 "http://www.w3.org/TR/2001/REC-SVG-20010904/DTD/svg10.dtd">
<svg version="1.0" xmlns="http://www.w3.org/2000/svg"
 width="512.000000pt" height="512.000000pt" viewBox="0 0 512.000000 512.000000"
 preserveAspectRatio="xMidYMid meet">

<g transform="translate(0.000000,512.000000) scale(0.100000,-0.100000)"
fill="#000000" stroke="none">
<path d="M425 4468 c-190 -36 -364 -206 -410 -400 -22 -94 -22 -2922 0 -3016
46 -192 205 -351 397 -397 55 -13 345 -15 2148 -15 1803 0 2093 2 2148 15 192
46 351 205 397 397 22 94 22 2922 0 3016 -47 199 -221 365 -419 401 -77 14
-4187 13 -4261 -1z m4263 -216 c17 -8 32 -17 32 -21 0 -11 -1662 -1828 -1758
-1922 -98 -96 -176 -140 -290 -164 -85 -18 -139 -18 -224 0 -116 24 -192 68
-295 169 -107 106 -1753 1906 -1753 1917 0 8 53 25 100 33 14 2 954 3 2090 2
1707 -1 2071 -3 2098 -14z m-3678 -1011 l752 -823 -38 -38 c-96 -94 -1467
-1340 -1474 -1340 -5 0 -14 17 -22 38 -20 56 -19 2909 1 2965 7 22 16 35 21
30 4 -4 346 -379 760 -832z m3895 -676 c0 -1180 -2 -1457 -13 -1487 -8 -21
-17 -38 -21 -38 -6 0 -1397 1263 -1480 1345 l-33 33 758 830 759 830 15 -31
c13 -28 15 -214 15 -1482z m-2794 -504 c127 -93 285 -144 449 -144 226 0 403
80 580 263 l75 78 751 -687 752 -686 -32 -15 c-27 -13 -284 -15 -2126 -15
-1842 0 -2099 2 -2126 15 l-31 15 751 686 751 687 75 -78 c41 -43 100 -96 131
-119z"/>
</g>
</svg>
